<svg fill="none" height="24" viewBox="0 0 24 24" width="24" xmlns="http://www.w3.org/2000/svg"><g fill="#212121"><path d="m12.5 2v3.25154c0 .41422.3358.75.75.75s.75-.33578.75-.75v-3.25154h1v4.25112c0 .41422.3358.75.75.75s.75-.33578.75-.75v-4.25112h1.7502c.4143 0 .75.33579.75.75v8.25h-13.99996v-8.25c0-.41421.33579-.75.75-.75z"/><path d="m5.00024 12.5v1.7521c0 1.2426 1.00736 2.25 2.25 2.25h2.74967v3.4979c0 1.1046.89539 2 1.99999 2s2-.8954 2-2v-3.4979h2.7503c1.2427 0 2.25-1.0074 2.25-2.25v-1.7521z"/></g></svg>